0
SECTION
2
HEADER
9
$INSUNITS
70
4
9
$ACADVER
1
AC1014
9
$HANDSEED
5
FFFF
0
ENDSEC
0
SECTION
2
TABLES
0
TABLE
2
VPORT
5
8
100
AcDbSymbolTable
0
ENDTAB
0
TABLE
2
LTYPE
5
5
100
AcDbSymbolTable
0
LTYPE
5
14
100
AcDbSymbolTableRecord
100
AcDbLinetypeTableRecord
2
BYBLOCK
70
0
0
LTYPE
5
15
100
AcDbSymbolTableRecord
100
AcDbLinetypeTableRecord
2
BYLAYER
70
0
0
ENDTAB
0
TABLE
2
LAYER
5
2
100
AcDbSymbolTable
70
2
0
LAYER
5
50
100
AcDbSymbolTableRecord
100
AcDbLayerTableRecord
2
0
70
0
6
CONTINUOUS
0
ENDTAB
0
TABLE
2
STYLE
5
3
100
AcDbSymbolTable
70
1
0
STYLE
5
11
100
AcDbSymbolTableRecord
100
AcDbTextStyleTableRecord
2
STANDARD
70
0
0
ENDTAB
0
TABLE
2
VIEW
5
6
100
AcDbSymbolTable
70
0
0
ENDTAB
0
TABLE
2
UCS
5
7
100
AcDbSymbolTable
70
0
0
ENDTAB
0
TABLE
2
APPID
5
9
100
AcDbSymbolTable
70
2
0
APPID
5
12
100
AcDbSymbolTableRecord
100
AcDbRegAppTableRecord
2
ACAD
70
0
0
ENDTAB
0
TABLE
2
DIMSTYLE
5
A
100
AcDbSymbolTable
70
1
0
ENDTAB
0
TABLE
2
BLOCK_RECORD
5
1
100
AcDbSymbolTable
70
1
0
BLOCK_RECORD
5
1F
100
AcDbSymbolTableRecord
100
AcDbBlockTableRecord
2
*MODEL_SPACE
0
BLOCK_RECORD
5
1B
100
AcDbSymbolTableRecord
100
AcDbBlockTableRecord
2
*PAPER_SPACE
0
ENDTAB
0
ENDSEC
0
SECTION
2
BLOCKS
0
BLOCK
5
20
100
AcDbEntity
100
AcDbBlockBegin
2
*MODEL_SPACE
0
ENDBLK
5
21
100
AcDbEntity
100
AcDbBlockEnd
0
BLOCK
5
1C
100
AcDbEntity
100
AcDbBlockBegin
2
*PAPER_SPACE
0
ENDBLK
5
1D
100
AcDbEntity
100
AcDbBlockEnd
0
ENDSEC
0
SECTION
2
ENTITIES
0
LWPOLYLINE
5
100
100
AcDbEntity
8
0
100
AcDbPolyline
90
30
70
1
43
0.0
10
-15.54796822690475
20
-20.689093584230818
10
-11.14484911620433
20
-19.172978447418888
42
-0.083093573969914014
10
-10.111170443773446
20
-19
10
-3.9724048132082346
20
-19.000000000000004
42
-0.14774497586753696
10
-2.214581080534209
20
-19.531010452961674
42
0.30208401621355385
10
2.2145810805342063
20
-19.531010452961681
42
-0.14774497586753751
10
3.9724048132082386
20
-19.000000000000004
10
10.11117044377345
20
-19
42
-0.083093573969914014
10
11.144849116204334
20
-19.172978447418888
10
15.547968226904732
20
-20.689093584230804
42
-0.056919233838271889
10
16.198233347346971
20
-20.999469115797254
42
0.55466093348939915
10
20.239361376023318
20
-19.028481233628128
42
-0.056919019892392841
10
20.395124970168538
20
-18.324981750699067
10
24.423449707482575
20
-6.6258772297811186
42
-0.056919019892389053
10
24.733823849826631
20
-5.9756144279028138
42
0.18170748182775084
10
25.10342879168293
20
-4.1480779651519644
10
24.366176733427007
20
0.42204182195051632
42
0.048262906063301303
10
24.23674328630899
20
0.91575533195138092
10
18.801209410791934
20
15.676005041495696
42
0.3142606441404816
10
14.25
20
18.850000000000001
10
-14.250000000000004
20
18.850000000000001
42
0.31426064414048133
10
-18.801209410792008
20
15.676005041495724
10
-24.236743286308993
20
0.9157553319513756
42
0.048262906063300866
10
-24.366176733427007
20
0.42204182195051398
10
-25.103428791682923
20
-4.1480779651519644
42
0.18170748182774857
10
-24.733823849826631
20
-5.9756144279027845
42
-0.056919019892387492
10
-24.423449707482586
20
-6.6258772297810742
10
-20.395124970168528
20
-18.324981750699084
42
-0.056919019892391724
10
-20.239361376023307
20
-19.028481233628142
42
0.55466093348939671
10
-16.198233347346978
20
-20.999469115797265
42
-0.056919233838270883
0
CIRCLE
5
101
100
AcDbEntity
8
0
100
AcDbCircle
10
14.249999999999998
20
14.000000000000002
30
0
40
1.6999999999999993
210
0
220
-0
230
1
0
CIRCLE
5
102
100
AcDbEntity
8
0
100
AcDbCircle
10
14.249999999999998
20
14.000000000000002
30
0
40
1.6999999999999993
210
0
220
-0
230
1
0
CIRCLE
5
103
100
AcDbEntity
8
0
100
AcDbCircle
10
-14.250000000000004
20
14.000000000000002
30
0
40
1.6999999999999993
210
0
220
-0
230
1
0
CIRCLE
5
104
100
AcDbEntity
8
0
100
AcDbCircle
10
-14.250000000000004
20
14.000000000000002
30
0
40
1.6999999999999993
210
0
220
-0
230
1
0
CIRCLE
5
105
100
AcDbEntity
8
0
100
AcDbCircle
10
15.806250253516414
20
8.6153904684124818
30
0
40
1.25
210
0
220
-0
230
1
0
CIRCLE
5
106
100
AcDbEntity
8
0
100
AcDbCircle
10
10.800000000000015
20
6.2500000000001554
30
0
40
1.25
210
0
220
-0
230
1
0
CIRCLE
5
107
100
AcDbEntity
8
0
100
AcDbCircle
10
-18.09572784774625
20
-3.8463792923086788
30
0
40
1.25
210
0
220
-0
230
1
0
CIRCLE
5
108
100
AcDbEntity
8
0
100
AcDbCircle
10
-17.603729741398556
20
-18.752898421092102
30
0
40
1.25
210
0
220
-0
230
1
0
CIRCLE
5
109
100
AcDbEntity
8
0
100
AcDbCircle
10
-10.799999999999965
20
-6.2499999999998446
30
0
40
1.25
210
0
220
-0
230
1
0
CIRCLE
5
110
100
AcDbEntity
8
0
100
AcDbCircle
10
21.750000000000004
20
1.2113398948040051e-13
30
0
40
1.25
210
0
220
-0
230
1
0
CIRCLE
5
111
100
AcDbEntity
8
0
100
AcDbCircle
10
20.689772570373734
20
-5.5673881655772774
30
0
40
1.25
210
0
220
-0
230
1
0
CIRCLE
5
112
100
AcDbEntity
8
0
100
AcDbCircle
10
0
20
0
30
0
40
2.1499999999999999
210
0
220
-0
230
1
0
CIRCLE
5
113
100
AcDbEntity
8
0
100
AcDbCircle
10
-22.487252058255926
20
-4.5701197871023611
30
0
40
1.25
210
0
220
-0
230
1
0
CIRCLE
5
114
100
AcDbEntity
8
0
100
AcDbCircle
10
-21.750000000000004
20
1.2113398948040051e-13
30
0
40
1.25
210
0
220
-0
230
1
0
CIRCLE
5
115
100
AcDbEntity
8
0
100
AcDbCircle
10
18.36210237566744
20
-2.2545944969123717
30
0
40
1.25
210
0
220
-0
230
1
0
CIRCLE
5
116
100
AcDbEntity
8
0
100
AcDbCircle
10
18.095732725922552
20
3.8463563423031077
30
0
40
1.25
210
0
220
-0
230
1
0
CIRCLE
5
117
100
AcDbEntity
8
0
100
AcDbCircle
10
-18.36210523505407
20
2.2545712090771799
30
0
40
1.25
210
0
220
-0
230
1
0
CIRCLE
5
118
100
AcDbEntity
8
0
100
AcDbCircle
10
10.800000000000015
20
-6.2499999999998446
30
0
40
1.25
210
0
220
-0
230
1
0
CIRCLE
5
119
100
AcDbEntity
8
0
100
AcDbCircle
10
-10.799999999999965
20
6.2500000000001554
30
0
40
1.25
210
0
220
-0
230
1
0
CIRCLE
5
120
100
AcDbEntity
8
0
100
AcDbCircle
10
15.806250253516414
20
8.6153904684124818
30
0
40
1.25
210
0
220
-0
230
1
0
CIRCLE
5
121
100
AcDbEntity
8
0
100
AcDbCircle
10
14.249999999999998
20
14.000000000000002
30
0
40
1.6999999999999993
210
0
220
-0
230
1
0
CIRCLE
5
122
100
AcDbEntity
8
0
100
AcDbCircle
10
10.800000000000015
20
6.2500000000001554
30
0
40
1.25
210
0
220
-0
230
1
0
CIRCLE
5
123
100
AcDbEntity
8
0
100
AcDbCircle
10
-18.09572784774625
20
-3.8463792923086788
30
0
40
1.25
210
0
220
-0
230
1
0
CIRCLE
5
124
100
AcDbEntity
8
0
100
AcDbCircle
10
-17.603729741398556
20
-18.752898421092102
30
0
40
1.25
210
0
220
-0
230
1
0
CIRCLE
5
125
100
AcDbEntity
8
0
100
AcDbCircle
10
-10.799999999999965
20
-6.2499999999998446
30
0
40
1.25
210
0
220
-0
230
1
0
CIRCLE
5
126
100
AcDbEntity
8
0
100
AcDbCircle
10
21.750000000000004
20
1.2113398948040051e-13
30
0
40
1.25
210
0
220
-0
230
1
0
CIRCLE
5
127
100
AcDbEntity
8
0
100
AcDbCircle
10
20.689772570373734
20
-5.5673881655772774
30
0
40
1.25
210
0
220
-0
230
1
0
CIRCLE
5
128
100
AcDbEntity
8
0
100
AcDbCircle
10
0
20
0
30
0
40
2.1499999999999999
210
0
220
-0
230
1
0
CIRCLE
5
129
100
AcDbEntity
8
0
100
AcDbCircle
10
-22.487252058255926
20
-4.5701197871023611
30
0
40
1.25
210
0
220
-0
230
1
0
CIRCLE
5
130
100
AcDbEntity
8
0
100
AcDbCircle
10
-21.750000000000004
20
1.2113398948040051e-13
30
0
40
1.25
210
0
220
-0
230
1
0
CIRCLE
5
131
100
AcDbEntity
8
0
100
AcDbCircle
10
18.36210237566744
20
-2.2545944969123717
30
0
40
1.25
210
0
220
-0
230
1
0
CIRCLE
5
132
100
AcDbEntity
8
0
100
AcDbCircle
10
18.095732725922552
20
3.8463563423031077
30
0
40
1.25
210
0
220
-0
230
1
0
CIRCLE
5
133
100
AcDbEntity
8
0
100
AcDbCircle
10
-14.250000000000004
20
14.000000000000002
30
0
40
1.6999999999999993
210
0
220
-0
230
1
0
CIRCLE
5
134
100
AcDbEntity
8
0
100
AcDbCircle
10
-18.36210523505407
20
2.2545712090771799
30
0
40
1.25
210
0
220
-0
230
1
0
CIRCLE
5
135
100
AcDbEntity
8
0
100
AcDbCircle
10
10.800000000000015
20
-6.2499999999998446
30
0
40
1.25
210
0
220
-0
230
1
0
CIRCLE
5
136
100
AcDbEntity
8
0
100
AcDbCircle
10
-10.799999999999965
20
6.2500000000001554
30
0
40
1.25
210
0
220
-0
230
1
0
LWPOLYLINE
5
137
100
AcDbEntity
8
0
100
AcDbPolyline
90
30
70
1
43
0.0
10
-11.14484911620433
20
-19.172978447418888
10
-15.547968226904752
20
-20.689093584230811
42
0.056919233838279522
10
-16.198233347346978
20
-20.999469115797261
42
-0.5546609334893966
10
-20.239361376023307
20
-19.028481233628142
42
0.056919019892384883
10
-20.395124970168528
20
-18.324981750699088
10
-24.423449707482586
20
-6.6258772297810742
42
0.05691901989238389
10
-24.733823849826639
20
-5.9756144279027907
42
-0.18170748182774854
10
-25.103428791682923
20
-4.1480779651519653
10
-24.366176733427011
20
0.4220418219505111
42
-0.04826290606330106
10
-24.236743286308993
20
0.91575533195137648
10
-18.801209410791934
20
15.676005041495692
42
-0.31426064414045846
10
-14.250000000000004
20
18.850000000000001
10
14.249999999999998
20
18.850000000000009
42
-0.31426064414045846
10
18.801209410791934
20
15.676005041495696
10
24.23674328630899
20
0.91575533195138448
42
-0.048262906063301282
10
24.366176733427007
20
0.42204182195051687
10
25.10342879168293
20
-4.1480779651519644
42
-0.18170748182775084
10
24.733823849826631
20
-5.9756144279028138
42
0.056919019892381302
10
24.423449707482572
20
-6.6258772297811159
10
20.395124970168538
20
-18.324981750699067
42
0.056919019892394271
10
20.239361376023307
20
-19.028481233628128
42
-0.55466093348939915
10
16.198233347346971
20
-20.999469115797254
42
0.056919233838270383
10
15.547968226904734
20
-20.689093584230807
10
11.144849116204334
20
-19.172978447418888
42
0.083093573969914028
10
10.11117044377345
20
-19
10
3.9724048132082377
20
-19
42
0.14774497586753788
10
2.2145810805342072
20
-19.531010452961674
42
-0.30208401621355396
10
-2.2145810805342085
20
-19.531010452961674
42
0.14774497586753874
10
-3.9724048132082346
20
-19.000000000000004
10
-10.111170443773446
20
-19
42
0.083093573969914028
0
CIRCLE
5
138
100
AcDbEntity
8
0
100
AcDbCircle
10
14.249999999999998
20
14.000000000000002
30
0
40
3.3499999999999996
210
-0
220
0
230
1
0
CIRCLE
5
139
100
AcDbEntity
8
0
100
AcDbCircle
10
15.806250253516414
20
8.6153904684124818
30
0
40
1.25
210
0
220
-0
230
1
0
CIRCLE
5
140
100
AcDbEntity
8
0
100
AcDbCircle
10
10.800000000000015
20
6.2500000000001554
30
0
40
1.25
210
0
220
-0
230
1
0
CIRCLE
5
141
100
AcDbEntity
8
0
100
AcDbCircle
10
-18.09572784774625
20
-3.8463792923086788
30
0
40
1.25
210
0
220
-0
230
1
0
CIRCLE
5
142
100
AcDbEntity
8
0
100
AcDbCircle
10
-17.603729741398556
20
-18.752898421092102
30
0
40
1.25
210
0
220
-0
230
1
0
CIRCLE
5
143
100
AcDbEntity
8
0
100
AcDbCircle
10
-10.799999999999965
20
-6.2499999999998446
30
0
40
1.25
210
0
220
-0
230
1
0
CIRCLE
5
144
100
AcDbEntity
8
0
100
AcDbCircle
10
21.750000000000004
20
1.2113398948040051e-13
30
0
40
1.25
210
0
220
-0
230
1
0
CIRCLE
5
145
100
AcDbEntity
8
0
100
AcDbCircle
10
20.689772570373734
20
-5.5673881655772774
30
0
40
1.25
210
0
220
-0
230
1
0
CIRCLE
5
146
100
AcDbEntity
8
0
100
AcDbCircle
10
0
20
0
30
0
40
2.1499999999999999
210
0
220
-0
230
1
0
CIRCLE
5
147
100
AcDbEntity
8
0
100
AcDbCircle
10
-22.487252058255926
20
-4.5701197871023611
30
0
40
1.25
210
0
220
-0
230
1
0
CIRCLE
5
148
100
AcDbEntity
8
0
100
AcDbCircle
10
-21.750000000000004
20
1.2113398948040051e-13
30
0
40
1.25
210
0
220
-0
230
1
0
CIRCLE
5
149
100
AcDbEntity
8
0
100
AcDbCircle
10
18.36210237566744
20
-2.2545944969123717
30
0
40
1.25
210
0
220
-0
230
1
0
CIRCLE
5
150
100
AcDbEntity
8
0
100
AcDbCircle
10
18.095732725922552
20
3.8463563423031077
30
0
40
1.25
210
0
220
-0
230
1
0
CIRCLE
5
151
100
AcDbEntity
8
0
100
AcDbCircle
10
-18.36210523505407
20
2.2545712090771799
30
0
40
1.25
210
0
220
-0
230
1
0
CIRCLE
5
152
100
AcDbEntity
8
0
100
AcDbCircle
10
10.800000000000015
20
-6.2499999999998446
30
0
40
1.25
210
0
220
-0
230
1
0
CIRCLE
5
153
100
AcDbEntity
8
0
100
AcDbCircle
10
-10.799999999999965
20
6.2500000000001554
30
0
40
1.25
210
0
220
-0
230
1
0
LWPOLYLINE
5
154
100
AcDbEntity
8
0
100
AcDbPolyline
90
30
70
1
43
0.0
10
-15.54796822690475
20
-20.689093584230818
10
-11.14484911620433
20
-19.172978447418888
42
-0.083093573969914014
10
-10.111170443773446
20
-19
10
-3.9724048132082346
20
-19.000000000000004
42
-0.14774497586753696
10
-2.214581080534209
20
-19.531010452961674
42
0.30208401621355385
10
2.2145810805342063
20
-19.531010452961681
42
-0.14774497586753751
10
3.9724048132082386
20
-19.000000000000004
10
10.11117044377345
20
-19
42
-0.083093573969914014
10
11.144849116204334
20
-19.172978447418888
10
15.547968226904732
20
-20.689093584230804
42
-0.056919233838271889
10
16.198233347346971
20
-20.999469115797254
42
0.55466093348939915
10
20.239361376023318
20
-19.028481233628128
42
-0.056919019892392841
10
20.395124970168538
20
-18.324981750699067
10
24.423449707482575
20
-6.6258772297811186
42
-0.056919019892389053
10
24.733823849826631
20
-5.9756144279028138
42
0.18170748182775084
10
25.10342879168293
20
-4.1480779651519644
10
24.366176733427007
20
0.42204182195051632
42
0.048262906063301303
10
24.23674328630899
20
0.91575533195138092
10
18.801209410791934
20
15.676005041495696
42
0.3142606441404584
10
14.25
20
18.850000000000001
10
-14.250000000000004
20
18.850000000000001
42
0.31426064414045768
10
-18.801209410792008
20
15.676005041495724
10
-24.236743286308993
20
0.9157553319513756
42
0.048262906063300866
10
-24.366176733427007
20
0.42204182195051398
10
-25.103428791682923
20
-4.1480779651519644
42
0.18170748182774857
10
-24.733823849826631
20
-5.9756144279027845
42
-0.056919019892387492
10
-24.423449707482586
20
-6.6258772297810742
10
-20.395124970168528
20
-18.324981750699084
42
-0.056919019892391724
10
-20.239361376023307
20
-19.028481233628142
42
0.55466093348939671
10
-16.198233347346978
20
-20.999469115797265
42
-0.056919233838270883
0
CIRCLE
5
155
100
AcDbEntity
8
0
100
AcDbCircle
10
-14.249999999999998
20
13.999999999999993
30
0
40
3.3499999999999996
210
-0
220
0
230
1
0
CIRCLE
5
156
100
AcDbEntity
8
0
100
AcDbCircle
10
0
20
-16.200000000000003
30
0
40
1.25
210
0
220
-0
230
1
0
CIRCLE
5
157
100
AcDbEntity
8
0
100
AcDbCircle
10
0
20
-16.200000000000003
30
0
40
1.25
210
0
220
-0
230
1
0
CIRCLE
5
158
100
AcDbEntity
8
0
100
AcDbCircle
10
0
20
-16.200000000000003
30
0
40
1.25
210
0
220
-0
230
1
0
ENDSEC
0
SECTION
2
OBJECTS
0
DICTIONARY
5
C
100
AcDbDictionary
3
ACAD_GROUP
350
D
3
ACAD_MLINESTYLE
350
17
0
DICTIONARY
5
D
100
AcDbDictionary
0
DICTIONARY
5
1A
330
C
100
AcDbDictionary
0
DICTIONARY
5
17
100
AcDbDictionary
0
ENDSEC
0
EOF
