0
SECTION
2
HEADER
9
$INSUNITS
70
4
9
$ACADVER
1
AC1014
9
$HANDSEED
5
FFFF
0
ENDSEC
0
SECTION
2
TABLES
0
TABLE
2
VPORT
5
8
100
AcDbSymbolTable
0
ENDTAB
0
TABLE
2
LTYPE
5
5
100
AcDbSymbolTable
0
LTYPE
5
14
100
AcDbSymbolTableRecord
100
AcDbLinetypeTableRecord
2
BYBLOCK
70
0
0
LTYPE
5
15
100
AcDbSymbolTableRecord
100
AcDbLinetypeTableRecord
2
BYLAYER
70
0
0
ENDTAB
0
TABLE
2
LAYER
5
2
100
AcDbSymbolTable
70
2
0
LAYER
5
50
100
AcDbSymbolTableRecord
100
AcDbLayerTableRecord
2
0
70
0
6
CONTINUOUS
0
ENDTAB
0
TABLE
2
STYLE
5
3
100
AcDbSymbolTable
70
1
0
STYLE
5
11
100
AcDbSymbolTableRecord
100
AcDbTextStyleTableRecord
2
STANDARD
70
0
0
ENDTAB
0
TABLE
2
VIEW
5
6
100
AcDbSymbolTable
70
0
0
ENDTAB
0
TABLE
2
UCS
5
7
100
AcDbSymbolTable
70
0
0
ENDTAB
0
TABLE
2
APPID
5
9
100
AcDbSymbolTable
70
2
0
APPID
5
12
100
AcDbSymbolTableRecord
100
AcDbRegAppTableRecord
2
ACAD
70
0
0
ENDTAB
0
TABLE
2
DIMSTYLE
5
A
100
AcDbSymbolTable
70
1
0
ENDTAB
0
TABLE
2
BLOCK_RECORD
5
1
100
AcDbSymbolTable
70
1
0
BLOCK_RECORD
5
1F
100
AcDbSymbolTableRecord
100
AcDbBlockTableRecord
2
*MODEL_SPACE
0
BLOCK_RECORD
5
1B
100
AcDbSymbolTableRecord
100
AcDbBlockTableRecord
2
*PAPER_SPACE
0
ENDTAB
0
ENDSEC
0
SECTION
2
BLOCKS
0
BLOCK
5
20
100
AcDbEntity
100
AcDbBlockBegin
2
*MODEL_SPACE
0
ENDBLK
5
21
100
AcDbEntity
100
AcDbBlockEnd
0
BLOCK
5
1C
100
AcDbEntity
100
AcDbBlockBegin
2
*PAPER_SPACE
0
ENDBLK
5
1D
100
AcDbEntity
100
AcDbBlockEnd
0
ENDSEC
0
SECTION
2
ENTITIES
0
CIRCLE
5
100
100
AcDbEntity
8
0
100
AcDbCircle
10
-9.5000000000000036
20
12.225000000000003
30
0
40
1.6999999999999993
210
0
220
0
230
1
0
CIRCLE
5
101
100
AcDbEntity
8
0
100
AcDbCircle
10
17.60665681320561
20
3.7424104347332858
30
0
40
1.25
210
0
220
0
230
1
0
CIRCLE
5
102
100
AcDbEntity
8
0
100
AcDbCircle
10
16.643483984676671
20
-5.4078129453669312
30
0
40
1.25
210
0
220
0
230
1
0
LWPOLYLINE
5
103
100
AcDbEntity
8
0
100
AcDbPolyline
90
4
70
1
43
0.0
10
-11.11457568874172
20
-1.0922177597812761
42
1.5573672833270624
10
-8.0235885310550596
20
-1.1559758199153007
42
-0.21794573151883939
10
-7.9690951897066418
20
1.4858582938159564
42
1.5573672833270658
10
-11.060082347393301
20
1.5496163539499785
42
-0.21794573151883917
0
CIRCLE
5
104
100
AcDbEntity
8
0
100
AcDbCircle
10
0
20
16.200000000000003
30
0
40
1.25
210
0
220
0
230
1
0
CIRCLE
5
105
100
AcDbEntity
8
0
100
AcDbCircle
10
0
20
0
30
0
40
2.1499999999999999
210
0
220
0
230
1
0
CIRCLE
5
106
100
AcDbEntity
8
0
100
AcDbCircle
10
-13.694066410265865
20
-2.9107636714835152
30
0
40
1.25
210
0
220
0
230
1
0
CIRCLE
5
107
100
AcDbEntity
8
0
100
AcDbCircle
10
-18.545607118237839
20
6.0258158465041278
30
0
40
1.25
210
0
220
0
230
1
0
CIRCLE
5
108
100
AcDbEntity
8
0
100
AcDbCircle
10
-21.750000000000004
20
-1.2113398948040051e-13
30
0
40
1.25
210
0
220
0
230
1
0
LWPOLYLINE
5
109
100
AcDbEntity
8
0
100
AcDbPolyline
90
4
70
1
43
0.0
10
7.8000905810077654
20
2.2074510051145264
42
1.5573672833270642
10
10.597915119196088
20
3.522914631645953
42
-0.2179457315188395
10
9.4736022357532885
20
5.9141857473603672
42
1.5573672833270642
10
6.6757776975649659
20
4.5987221208289437
42
-0.2179457315188395
0
CIRCLE
5
110
100
AcDbEntity
8
0
100
AcDbCircle
10
9.4999999999999982
20
12.225000000000001
30
0
40
1.7000000000000004
210
0
220
0
230
1
0
CIRCLE
5
111
100
AcDbEntity
8
0
100
AcDbCircle
10
21.750000000000004
20
-1.2113398948040051e-13
30
0
40
1.25
210
0
220
0
230
1
0
LWPOLYLINE
5
112
100
AcDbEntity
8
0
100
AcDbPolyline
90
20
70
1
43
0.0
10
-18.795859948074181
20
-15.690460686468333
42
0.3133878737248092
10
-14.249999999999998
20
-18.850000000000001
10
14.250000000000004
20
-18.850000000000001
42
0.31338787372480947
10
18.795859948074188
20
-15.690460686468327
10
24.280684919546459
20
-0.9410812069000164
42
0.12105900327230337
10
24.42864019491558
20
0.33894941534416245
10
22.725117548567088
20
13.801501722251983
42
-0.031477618717011893
10
22.699999999999999
20
14.20008112733332
10
22.700000000000003
20
17.000000000013479
42
0.41376461353819138
10
20.703066099725035
20
18.99999764977013
10
3.9724048132082412
20
19
42
-0.14774497586753729
10
2.2145810805342103
20
19.531010452961674
42
0.30208401621351622
10
-2.2145810805337436
20
19.531010452961983
42
-0.14774497586762794
10
-3.9724048132089744
20
19.000000000000558
10
-20.699999999999584
20
19.000000000008853
42
0.41421356237306284
10
-22.700000000000017
20
17.000000000008207
10
-22.699999999999999
20
14.200081127333309
42
-0.031477618717013225
10
-22.725117548567088
20
13.801501722251956
10
-24.428640194919335
20
0.33894941534459389
42
0.12105900327229954
10
-24.280684919546459
20
-0.94108120690001851
0
CIRCLE
5
113
100
AcDbEntity
8
0
100
AcDbCircle
10
14.250000000000004
20
-14.000000000000002
30
0
40
3.3499999999999996
210
0
220
-0
230
1
0
CIRCLE
5
114
100
AcDbEntity
8
0
100
AcDbCircle
10
-14.249999999999998
20
-14.000000000000002
30
0
40
1.6999999999999993
210
0
220
0
230
1
0
CIRCLE
5
115
100
AcDbEntity
8
0
100
AcDbCircle
10
-14.249999999999998
20
-14.000000000000002
30
0
40
3.3499999999999996
210
0
220
-0
230
1
0
CIRCLE
5
116
100
AcDbEntity
8
0
100
AcDbCircle
10
14.250000000000004
20
-14.000000000000002
30
0
40
1.6999999999999993
210
0
220
0
230
1
0
ENDSEC
0
SECTION
2
OBJECTS
0
DICTIONARY
5
C
100
AcDbDictionary
3
ACAD_GROUP
350
D
3
ACAD_MLINESTYLE
350
17
0
DICTIONARY
5
D
100
AcDbDictionary
0
DICTIONARY
5
1A
330
C
100
AcDbDictionary
0
DICTIONARY
5
17
100
AcDbDictionary
0
ENDSEC
0
EOF
